<svg width="241" height="105" viewBox="0 0 241 105" fill="none" xmlns="http://www.w3.org/2000/svg">
<path d="M70.8341 9H59.3375C58.9189 9 58.5446 9.26075 58.3995 9.65343L51.3338 28.7773C51.0925 29.4303 51.5756 30.1239 52.2718 30.1239H56.4892C57.2314 30.1239 57.715 30.9041 57.3847 31.5689L51.1335 44.1499C50.881 44.658 51.536 45.1273 51.9359 44.7248L69.8648 26.6832C70.4917 26.0524 70.0449 24.9783 69.1555 24.9783H64.4793C63.6945 24.9783 63.2155 24.1155 63.6307 23.4494L71.6827 10.5289C72.0979 9.86281 71.6189 9 70.8341 9Z" fill="white"/>
<path d="M35.3093 21.23C41.2105 16.7818 45.4847 14.8536 53.1216 14.245C53.8285 14.1887 54.3537 14.8782 54.1245 15.5493L51.8025 22.3465C51.7023 22.6399 51.4715 22.8702 51.178 22.9703C46.6088 24.5297 44.0342 25.5104 40.2967 27.7607C39.8601 28.0236 39.699 28.5761 39.9186 29.0359L49.0441 48.1463C49.2881 48.6572 49.9077 48.8617 50.4175 48.6153C57.0048 45.431 63.1922 45.1652 70.0003 47.6127C70.5518 47.8109 71.1652 47.5156 71.3332 46.9542L77.4509 26.516C77.6136 25.9723 77.2918 25.4023 76.7421 25.2608L67.5838 22.9032C66.9049 22.7285 66.6119 21.9276 67.0176 21.356L71.1384 15.5507C71.3892 15.1973 71.8391 15.0457 72.2526 15.1752L83.4773 18.6892C83.6044 18.729 83.7231 18.7935 83.8228 18.8816C84.9321 19.8628 85.2406 20.6776 85.2817 22.3919C85.284 22.4905 85.2707 22.5891 85.2434 22.6838L77.1354 50.8456C77.019 51.2496 77.1687 51.6826 77.5057 51.9341C79.3242 53.2912 80.4703 54.3425 82.3241 56.3934C84.1633 59.0328 84.7616 60.7169 85.53 63.267C85.6918 63.804 86.2619 64.1057 86.7958 63.9338L92.4015 62.1287C92.5005 62.0968 92.6048 62.0798 92.7088 62.0829C95.5054 62.166 97.2577 64.4613 94.8946 67.7804C94.7742 67.9495 94.5975 68.0716 94.3991 68.133L82.0381 71.9603C81.3851 72.1625 80.7274 71.6633 80.7179 70.9798C80.6684 67.429 80.0214 65.0121 78.2872 61.5389C75.3268 56.935 72.3664 54.7684 66.9839 52.8727C60.5248 51.2478 55.4114 52.3311 51.1054 55.3101C46.2276 59.0031 44.8819 61.9682 43.3007 67.4969C41.955 72.1009 36.911 71.0176 37.649 66.4137C38.1894 63.0426 39.0661 60.4717 41.7908 56.0374C42.2036 55.3655 41.7303 54.4966 40.9449 54.4252C40.4869 54.3835 40.0447 54.3189 39.5575 54.2192C38.8201 54.0681 38.0773 53.8269 37.5347 53.3052C36.0848 51.9111 35.9946 49.5486 37.95 48.4853C38.9191 47.9583 40.0856 48.0991 41.1707 48.2976C41.7086 48.396 42.124 47.8324 41.871 47.3478L35.0575 34.2987C34.6796 33.5749 33.6426 33.5865 33.3163 34.3351C31.9416 37.4882 31.4332 40.2079 31.7282 45.019C32.2786 49.8998 33.8002 53.1435 36.3034 56.935C38.7936 60.707 34.4642 64.211 30.9747 60.78C30.9394 60.7454 30.9056 60.7059 30.8764 60.666C28.1268 56.9162 26.7334 54.054 25.5465 48.5976C25.1481 46.7658 24.9827 44.8858 25.0513 43.0125C25.3578 34.6381 27.1027 29.8714 32.1627 24.1219C33.1049 23.0513 34.1705 22.0884 35.3093 21.23Z" fill="white"/>
<path d="M61.8701 53.9556C71.0855 53.9556 78.5566 61.4733 78.5566 70.7466C78.5566 80.0199 71.0855 87.5376 61.8701 87.5376C52.6549 87.5374 45.1846 80.0198 45.1846 70.7466C45.1846 61.4734 52.6549 53.9558 61.8701 53.9556ZM59.875 75.521C59.8759 75.0585 59.3051 74.8403 59.001 75.187L54.6025 80.2056C54.3728 80.4678 54.4756 80.88 54.8018 81.0044L59.1865 82.6772C59.5126 82.8016 59.8614 82.5618 59.8623 82.2124L59.875 75.521ZM63.9756 75.0718C63.677 74.7202 63.1022 74.9288 63.0957 75.3911L63.0059 82.0825C63.0013 82.4319 63.3468 82.6774 63.6748 82.5581L68.085 80.9536C68.413 80.8343 68.5225 80.4234 68.2969 80.1577L63.9756 75.0718ZM66.1729 71.98C65.7138 71.9558 65.4708 72.5152 65.7998 72.8384L70.5596 77.5142C70.8094 77.7596 71.2265 77.6794 71.3662 77.3589L73.249 73.0347C73.3886 72.7141 73.165 72.3511 72.8164 72.3325L66.1729 71.98ZM50.1592 72.1909C49.8101 72.2019 49.5792 72.5597 49.7119 72.8833L51.502 77.2466C51.6347 77.5702 52.0496 77.6595 52.3047 77.4194L57.1631 72.8472C57.4989 72.5312 57.268 71.9677 56.8086 71.9819L50.1592 72.1909ZM52.3096 63.9604C52.0454 63.729 51.6327 63.8348 51.5127 64.1646L49.9023 68.5884C49.7824 68.9182 50.0305 69.2674 50.3809 69.2622L56.915 69.1606C57.3716 69.1535 57.5782 68.586 57.2344 68.2837L52.3096 63.9604ZM71.8975 63.4888C71.7593 63.1675 71.3428 63.0853 71.0918 63.3296L66.3105 67.9839C65.9802 68.3055 66.2206 68.8652 66.6797 68.8433L73.3242 68.521C73.6729 68.5041 73.8986 68.143 73.7607 67.8218L71.8975 63.4888ZM60.0107 59.3843C59.9989 59.0339 59.6407 58.8051 59.3184 58.9419L55.0068 60.7739C54.6844 60.911 54.5971 61.3296 54.8389 61.5825L59.3672 66.3198C59.6839 66.6509 60.2427 66.4129 60.2275 65.9536L60.0107 59.3843ZM63.5488 58.5015C63.2187 58.3878 62.878 58.6394 62.8887 58.9888L63.0938 65.6772C63.1083 66.1392 63.6859 66.3382 63.9785 65.9819L68.2109 60.8208C68.432 60.5513 68.3162 60.1426 67.9863 60.0288L63.5488 58.5015Z" fill="white"/>
<path d="M62.4081 89.7715C56.8823 89.5491 54.3647 88.0878 51.6654 86.4893C50.4678 85.78 49.0742 85.1109 47.7788 85.6202C46.5249 86.1132 45.6782 87.2863 45.7245 88.6709C45.7694 90.0148 46.8901 91.0121 47.991 91.7841C52.0663 94.6415 55.0202 95.6431 62.4081 96.0001C68.466 95.5873 71.727 94.4907 75.8196 92.0912C77.1504 91.311 78.3544 90.1297 78.4853 88.5927C78.6478 86.6831 77.5512 85.4644 75.2725 85.557C74.4698 85.5897 73.7146 85.9212 73.0287 86.3395C69.6439 88.4039 67.8031 89.5248 62.4081 89.7715Z" fill="white"/>
<path d="M125.501 63.93C122.864 63.93 120.542 63.4713 118.535 62.554C116.528 61.608 114.851 60.361 113.504 58.813C112.185 57.2363 111.182 55.4733 110.494 53.524C109.835 51.5747 109.505 49.5823 109.505 47.547C109.505 45.5403 109.835 43.5623 110.494 41.613C111.182 39.6637 112.185 37.915 113.504 36.367C114.851 34.819 116.528 33.5863 118.535 32.669C120.542 31.723 122.864 31.25 125.501 31.25C127.766 31.25 129.686 31.5367 131.263 32.11C132.868 32.6547 134.201 33.3857 135.262 34.303C136.351 35.1917 137.211 36.1377 137.842 37.141C138.501 38.1157 138.989 39.0473 139.304 39.936C139.619 40.8247 139.82 41.5557 139.906 42.129C140.021 42.7023 140.078 42.989 140.078 42.989H132.725C132.725 42.989 132.639 42.731 132.467 42.215C132.324 41.699 132.008 41.1113 131.521 40.452C131.062 39.764 130.36 39.162 129.414 38.646C128.468 38.13 127.192 37.872 125.587 37.872C123.724 37.872 122.161 38.345 120.9 39.291C119.667 40.237 118.736 41.4553 118.105 42.946C117.503 44.408 117.202 45.9417 117.202 47.547C117.202 49.1523 117.503 50.7003 118.105 52.191C118.736 53.6817 119.667 54.9 120.9 55.846C122.161 56.792 123.724 57.265 125.587 57.265C127.192 57.265 128.468 57.007 129.414 56.491C130.36 55.975 131.062 55.3873 131.521 54.728C132.008 54.0687 132.324 53.481 132.467 52.965C132.639 52.449 132.725 52.191 132.725 52.191H140.078C140.078 52.191 140.021 52.4777 139.906 53.051C139.82 53.5957 139.619 54.3267 139.304 55.244C138.989 56.1327 138.501 57.0787 137.842 58.082C137.211 59.0567 136.351 60.0027 135.262 60.92C134.201 61.8087 132.868 62.5397 131.263 63.113C129.686 63.6577 127.766 63.93 125.501 63.93ZM152.688 40.28C154.178 40.28 155.382 40.5237 156.3 41.011C157.246 41.4983 157.948 42 158.407 42.516C158.894 43.0033 159.166 43.3043 159.224 43.419H159.568V40.71H166.921V63.5H159.568V60.791H159.224C159.166 60.9057 158.894 61.221 158.407 61.737C157.948 62.253 157.246 62.7547 156.3 63.242C155.382 63.7007 154.178 63.93 152.688 63.93C151.025 63.93 149.577 63.6003 148.345 62.941C147.112 62.253 146.08 61.35 145.249 60.232C144.417 59.0853 143.801 57.8097 143.4 56.405C142.998 55.0003 142.798 53.567 142.798 52.105C142.798 50.643 142.998 49.2097 143.4 47.805C143.801 46.4003 144.417 45.139 145.249 44.021C146.08 42.8743 147.112 41.9713 148.345 41.312C149.577 40.624 151.025 40.28 152.688 40.28ZM155.01 46.171C153.949 46.171 153.06 46.472 152.344 47.074C151.627 47.6473 151.097 48.3927 150.753 49.31C150.409 50.1987 150.237 51.1303 150.237 52.105C150.237 53.0797 150.409 54.0257 150.753 54.943C151.097 55.8317 151.627 56.577 152.344 57.179C153.06 57.7523 153.949 58.039 155.01 58.039C156.07 58.039 156.945 57.7523 157.633 57.179C158.349 56.577 158.88 55.8317 159.224 54.943C159.596 54.0257 159.783 53.0797 159.783 52.105C159.783 51.1303 159.596 50.1987 159.224 49.31C158.88 48.3927 158.349 47.6473 157.633 47.074C156.945 46.472 156.07 46.171 155.01 46.171ZM171.306 63.5V30.82H178.659V49.568L185.668 40.71H193.838L185.324 51.116L194.225 63.5H185.754L178.659 53.524V63.5H171.306ZM196.818 63.5V31.68H204.257V57.05H219.565V63.5H196.818ZM227.751 38.001C226.519 38.001 225.501 37.5997 224.698 36.797C223.896 35.9943 223.494 35.0483 223.494 33.959C223.494 32.8123 223.896 31.8377 224.698 31.035C225.501 30.2323 226.519 29.831 227.751 29.831C228.984 29.831 230.002 30.2323 230.804 31.035C231.607 31.8377 232.008 32.8123 232.008 33.959C232.008 35.0483 231.607 35.9943 230.804 36.797C230.002 37.5997 228.984 38.001 227.751 38.001ZM224.053 63.5V40.71H231.406V63.5H224.053Z" fill="white"/>
<path d="M113.216 83.5V71.66H118.08C118.837 71.66 119.483 71.7987 120.016 72.076C120.56 72.3427 120.971 72.7 121.248 73.148C121.536 73.596 121.68 74.0867 121.68 74.62C121.68 75.1853 121.573 75.6493 121.36 76.012C121.157 76.364 120.923 76.636 120.656 76.828C120.389 77.02 120.16 77.1533 119.968 77.228V77.324C120.235 77.3987 120.539 77.5427 120.88 77.756C121.221 77.9587 121.515 78.2573 121.76 78.652C122.016 79.036 122.144 79.5373 122.144 80.156C122.144 80.7107 122.011 81.244 121.744 81.756C121.477 82.268 121.051 82.6893 120.464 83.02C119.888 83.34 119.131 83.5 118.192 83.5H113.216ZM117.904 73.26H115.088V76.684H117.904C118.587 76.684 119.083 76.508 119.392 76.156C119.701 75.804 119.856 75.4093 119.856 74.972C119.856 74.5347 119.701 74.14 119.392 73.788C119.083 73.436 118.587 73.26 117.904 73.26ZM118.048 78.156H115.088V81.9H118.048C118.571 81.9 118.997 81.8147 119.328 81.644C119.659 81.4627 119.899 81.228 120.048 80.94C120.197 80.652 120.272 80.348 120.272 80.028C120.272 79.708 120.197 79.4093 120.048 79.132C119.899 78.844 119.659 78.6093 119.328 78.428C118.997 78.2467 118.571 78.156 118.048 78.156ZM127.849 83.66C127.134 83.66 126.515 83.5373 125.993 83.292C125.481 83.036 125.054 82.7 124.713 82.284C124.382 81.8573 124.131 81.3827 123.961 80.86C123.801 80.3373 123.721 79.804 123.721 79.26C123.721 78.7267 123.801 78.1987 123.961 77.676C124.121 77.1533 124.366 76.6787 124.697 76.252C125.027 75.8253 125.449 75.4893 125.961 75.244C126.473 74.988 127.075 74.86 127.769 74.86C128.515 74.86 129.171 75.0307 129.737 75.372C130.313 75.7027 130.761 76.1987 131.081 76.86C131.411 77.5107 131.577 78.3213 131.577 79.292V79.788H125.561C125.603 80.4387 125.822 80.9987 126.217 81.468C126.611 81.9373 127.155 82.172 127.849 82.172C128.243 82.172 128.569 82.108 128.825 81.98C129.081 81.8413 129.278 81.6867 129.417 81.516C129.555 81.3453 129.651 81.196 129.705 81.068C129.769 80.94 129.801 80.876 129.801 80.876H131.497C131.497 80.876 131.47 80.972 131.417 81.164C131.363 81.3453 131.262 81.5747 131.113 81.852C130.974 82.1293 130.771 82.4067 130.505 82.684C130.238 82.9613 129.886 83.196 129.449 83.388C129.011 83.5693 128.478 83.66 127.849 83.66ZM125.577 78.508H129.817C129.774 77.7613 129.55 77.212 129.145 76.86C128.75 76.508 128.286 76.332 127.753 76.332C127.155 76.332 126.659 76.5293 126.265 76.924C125.87 77.308 125.641 77.836 125.577 78.508ZM137.426 83.66C136.711 83.66 136.087 83.5373 135.554 83.292C135.021 83.036 134.578 82.7 134.226 82.284C133.874 81.8573 133.607 81.3827 133.426 80.86C133.255 80.3373 133.17 79.804 133.17 79.26C133.17 78.716 133.255 78.1827 133.426 77.66C133.607 77.1373 133.874 76.668 134.226 76.252C134.578 75.8253 135.021 75.4893 135.554 75.244C136.087 74.988 136.711 74.86 137.426 74.86C138.13 74.86 138.711 74.9667 139.17 75.18C139.639 75.3827 140.013 75.6387 140.29 75.948C140.567 76.2573 140.775 76.5667 140.914 76.876C141.053 77.1853 141.138 77.4467 141.17 77.66C141.213 77.8733 141.234 77.98 141.234 77.98H139.506C139.506 77.98 139.479 77.9 139.426 77.74C139.383 77.58 139.293 77.3933 139.154 77.18C139.015 76.9667 138.807 76.78 138.53 76.62C138.263 76.46 137.901 76.38 137.442 76.38C136.898 76.38 136.445 76.5187 136.082 76.796C135.719 77.0627 135.442 77.4147 135.25 77.852C135.069 78.2893 134.978 78.7587 134.978 79.26C134.978 79.7613 135.069 80.2307 135.25 80.668C135.442 81.1053 135.719 81.4627 136.082 81.74C136.445 82.0067 136.898 82.14 137.442 82.14C137.901 82.14 138.263 82.06 138.53 81.9C138.807 81.74 139.015 81.5533 139.154 81.34C139.293 81.1267 139.383 80.94 139.426 80.78C139.479 80.62 139.506 80.54 139.506 80.54H141.234C141.234 80.54 141.213 80.6467 141.17 80.86C141.138 81.0733 141.053 81.3347 140.914 81.644C140.775 81.9533 140.567 82.2627 140.29 82.572C140.013 82.8813 139.639 83.1427 139.17 83.356C138.711 83.5587 138.13 83.66 137.426 83.66ZM146.678 74.86C147.211 74.86 147.654 74.9453 148.006 75.116C148.368 75.2867 148.656 75.484 148.87 75.708C149.083 75.932 149.238 76.124 149.334 76.284H149.43V75.02H151.254V83.5H149.43V82.236H149.334C149.238 82.396 149.083 82.588 148.87 82.812C148.656 83.036 148.368 83.2333 148.006 83.404C147.654 83.5747 147.211 83.66 146.678 83.66C146.038 83.66 145.478 83.5373 144.998 83.292C144.528 83.036 144.134 82.7 143.814 82.284C143.494 81.8573 143.254 81.3827 143.094 80.86C142.944 80.3373 142.87 79.804 142.87 79.26C142.87 78.716 142.944 78.1827 143.094 77.66C143.254 77.1373 143.494 76.668 143.814 76.252C144.134 75.8253 144.528 75.4893 144.998 75.244C145.478 74.988 146.038 74.86 146.678 74.86ZM147.078 76.38C146.555 76.38 146.118 76.524 145.766 76.812C145.414 77.0893 145.147 77.4467 144.966 77.884C144.795 78.3213 144.71 78.78 144.71 79.26C144.71 79.74 144.795 80.1987 144.966 80.636C145.147 81.0733 145.414 81.436 145.766 81.724C146.118 82.0013 146.555 82.14 147.078 82.14C147.6 82.14 148.032 82.0013 148.374 81.724C148.726 81.436 148.987 81.0733 149.158 80.636C149.339 80.1987 149.43 79.74 149.43 79.26C149.43 78.78 149.339 78.3213 149.158 77.884C148.987 77.4467 148.726 77.0893 148.374 76.812C148.032 76.524 147.6 76.38 147.078 76.38ZM153.389 83.5V71.34H155.213V78.396L158.397 75.02H160.637L156.941 78.892L160.749 83.5H158.493L155.213 79.5V83.5H153.389ZM165.881 83.5V71.66H167.753V81.868H173.737V83.5H165.881ZM176.775 73.564C176.444 73.564 176.172 73.452 175.959 73.228C175.746 73.004 175.639 72.7427 175.639 72.444C175.639 72.1347 175.746 71.8733 175.959 71.66C176.172 71.436 176.444 71.324 176.775 71.324C177.106 71.324 177.378 71.436 177.591 71.66C177.815 71.8733 177.927 72.1347 177.927 72.444C177.927 72.7533 177.815 73.02 177.591 73.244C177.378 73.4573 177.106 73.564 176.775 73.564ZM175.879 83.5V75.02H177.703V83.5H175.879ZM183.149 83.66C182.477 83.66 181.923 83.5693 181.485 83.388C181.059 83.196 180.717 82.9667 180.461 82.7C180.205 82.4227 180.013 82.1453 179.885 81.868C179.768 81.5907 179.693 81.3613 179.661 81.18C179.629 80.988 179.613 80.892 179.613 80.892H181.389C181.389 80.892 181.405 80.9613 181.437 81.1C181.48 81.228 181.56 81.3773 181.677 81.548C181.795 81.7187 181.976 81.8733 182.221 82.012C182.467 82.14 182.792 82.204 183.197 82.204C183.688 82.204 184.051 82.092 184.285 81.868C184.531 81.644 184.653 81.388 184.653 81.1C184.653 80.8227 184.552 80.604 184.349 80.444C184.147 80.284 183.859 80.1613 183.485 80.076L182.333 79.82C181.885 79.7133 181.464 79.5693 181.069 79.388C180.685 79.196 180.371 78.9453 180.125 78.636C179.891 78.316 179.773 77.9053 179.773 77.404C179.773 76.668 180.051 76.06 180.605 75.58C181.16 75.1 181.907 74.86 182.845 74.86C183.453 74.86 183.955 74.9453 184.349 75.116C184.755 75.2867 185.075 75.5 185.309 75.756C185.544 76.0013 185.72 76.252 185.837 76.508C185.955 76.7533 186.029 76.9613 186.061 77.132C186.104 77.292 186.125 77.372 186.125 77.372H184.413C184.413 77.372 184.397 77.3187 184.365 77.212C184.333 77.1053 184.264 76.9827 184.157 76.844C184.051 76.6947 183.891 76.5667 183.677 76.46C183.475 76.3427 183.197 76.284 182.845 76.284C182.365 76.284 182.019 76.3907 181.805 76.604C181.592 76.8173 181.485 77.0467 181.485 77.292C181.485 77.548 181.587 77.7507 181.789 77.9C182.003 78.0387 182.28 78.1453 182.621 78.22L183.757 78.476C184.515 78.6467 185.139 78.9293 185.629 79.324C186.12 79.708 186.365 80.268 186.365 81.004C186.365 81.4947 186.237 81.9427 185.981 82.348C185.736 82.7427 185.373 83.0627 184.893 83.308C184.413 83.5427 183.832 83.66 183.149 83.66ZM191.562 83.66C190.89 83.66 190.352 83.5373 189.946 83.292C189.541 83.0467 189.248 82.7213 189.066 82.316C188.896 81.9 188.81 81.452 188.81 80.972V76.492H187.322V75.02H188.81V72.908H190.634V75.02H192.618V76.492H190.634V80.94C190.634 81.74 191.077 82.14 191.962 82.14C192.186 82.14 192.394 82.124 192.586 82.092C192.778 82.06 192.874 82.044 192.874 82.044V83.532C192.874 83.532 192.741 83.5533 192.474 83.596C192.218 83.6387 191.914 83.66 191.562 83.66ZM194.581 83.5V75.02H196.405V76.14H196.469C196.629 75.8093 196.88 75.516 197.221 75.26C197.573 74.9933 198.08 74.86 198.741 74.86C198.944 74.86 199.114 74.8707 199.253 74.892C199.402 74.9133 199.477 74.924 199.477 74.924V76.684C199.477 76.684 199.397 76.6733 199.237 76.652C199.077 76.6307 198.896 76.62 198.693 76.62C197.946 76.62 197.376 76.8333 196.981 77.26C196.597 77.676 196.405 78.3533 196.405 79.292V83.5H194.581ZM202.307 73.564C201.976 73.564 201.704 73.452 201.491 73.228C201.278 73.004 201.171 72.7427 201.171 72.444C201.171 72.1347 201.278 71.8733 201.491 71.66C201.704 71.436 201.976 71.324 202.307 71.324C202.638 71.324 202.91 71.436 203.123 71.66C203.347 71.8733 203.459 72.1347 203.459 72.444C203.459 72.7533 203.347 73.02 203.123 73.244C202.91 73.4573 202.638 73.564 202.307 73.564ZM201.411 83.5V75.02H203.235V83.5H201.411ZM205.577 83.5V71.34H207.401V78.396L210.585 75.02H212.825L209.129 78.892L212.937 83.5H210.681L207.401 79.5V83.5H205.577Z" fill="white"/>
</svg>
